<svg enable-background="new 0 0 90 64" version="1.1" viewBox="0 0 90 64" xmlns="http://www.w3.org/2000/svg">
 
 <g class="arc-svg-primary">
  <path  d="m5.05 55.6c0.48-1.68 1.64-2.64 3.28-3.12 0.7-0.2 1.36-0.5 2.04-0.76 0.63-0.24 0.91-0.71 0.94-1.38 0.03-0.89-0.06-1.65-0.77-2.38-1.18-1.21-1.67-2.79-1.72-4.48-0.03-1.17-0.02-2.34-0.01-3.51 0.01-3.3 2.04-5.34 5.35-5.36 2.34-0.02 4.68 0 7.15 0v-0.86c0.03-2.24-0.1-4.49 0.11-6.7 0.54-5.72 3.46-9.92 8.67-12.31 5.07-2.33 10.01-1.76 14.67 1.3 0.17 0.11 0.33 0.23 0.4 0.28 0-2.08-0.08-4.19 0.02-6.29 0.15-3.14 2.87-6.06 5.97-6.52 0.52-0.08 0.88-0.24 1.21-0.69 0.95-1.3 2.28-1.96 3.88-1.97 3.02-0.02 6.03-0.06 9.05 0.01 6.57 0.15 11.78 5.33 12.17 11.88 0.14 2.37-0.4 4.42-1.91 6.22-0.56 0.67-0.69 1.38-0.65 2.28 0.22 4.29-1.25 7.95-4.42 10.88-0.38 0.35-0.56 0.68-0.54 1.19 0.04 1.01 0.01 2.02 0.01 3.08 1.22 0.14 1.83 1.01 2.32 1.94 0.59 1.1 1.44 1.7 2.65 2.05 2.14 0.61 4.24 1.38 6.36 2.1 2.45 0.83 3.67 2.52 3.67 5.09 0.01 4.68 0 9.36 0 14.04 0 0.26 0.05 0.6-0.08 0.76-0.31 0.34-0.72 0.8-1.09 0.79-0.37 0-0.8-0.45-1.08-0.81-0.16-0.2-0.09-0.6-0.09-0.91v-13.65c0-1.81-0.56-2.58-2.29-3.16-2.53-0.85-5.07-1.72-7.61-2.54-0.66-0.21-1.14-0.55-1.5-1.14-0.46-0.75-0.97-1.47-1.5-2.25-2.22 1.58-4.39 3.13-6.53 4.67 1.05 1.02 2.06 2.01 3.12 3.05 0.62-0.74 1.33-1.6 2.06-2.44 0.53-0.61 1.19-0.73 1.71-0.34 0.53 0.39 0.65 1.08 0.2 1.65-0.77 0.98-1.55 1.96-2.41 2.86-0.93 0.98-2.33 0.98-3.36 0.03-0.65-0.6-1.23-1.27-2.01-2.1-0.02 0.5-0.04 0.77-0.04 1.03 0 4.76 0 9.52-0.01 14.28 0 0.33-0.02 0.68-0.1 1-0.15 0.58-0.6 0.87-1.17 0.82s-0.96-0.39-1.04-0.99c-0.04-0.28-0.03-0.57-0.03-0.86v-14.2-0.82c-0.09-0.06-0.19-0.12-0.28-0.17-0.52 0.6-1.02 1.23-1.58 1.79-1.31 1.31-2.77 1.23-3.96-0.19-1.4-1.67-2.81-3.35-4.18-5.04-0.34-0.42-0.62-0.55-1.17-0.36-2.25 0.8-4.52 1.53-6.79 2.29-1.65 0.56-2.24 1.36-2.24 3.12-0.01 4.45 0 8.89 0 13.34v0.62c-0.02 0.94-0.43 1.46-1.14 1.48-0.73 0.02-1.19-0.55-1.2-1.52-0.01-1.92 0-3.85 0-5.77v-1.29c-0.5 0.06-0.93 0.16-1.36 0.15-1.03-0.03-1.9-0.44-2.65-1.15-1.42-1.34-2.86-2.65-4.27-4-0.31-0.3-0.55-0.35-0.95-0.16-1.8 0.86-3.62 1.69-5.44 2.52-1.21 0.55-1.75 1.49-1.75 2.78v6.48c0 0.21 0.01 0.42 0 0.62-0.03 0.81-0.45 1.31-1.12 1.34-0.69 0.03-1.19-0.5-1.21-1.34-0.03-1.09-0.01-2.18-0.01-3.28v-1.67c-0.36 0.34-0.61 0.58-0.86 0.8-1.08 0.95-2.39 0.96-3.43-0.03-1.11-1.05-2.2-2.14-3.27-3.24-0.3-0.31-0.56-0.37-0.95-0.2-0.57 0.25-1.16 0.47-1.74 0.67-0.8 0.27-1.16 0.8-1.15 1.64 0.02 1.66 0 3.33 0.01 4.99 0 0.65-0.05 1.26-0.76 1.55-0.73 0.3-1.16-0.18-1.58-0.64-0.02-2.3-0.02-4.58-0.02-6.87zm42.61-39.81c0.54-0.77 0.93-1.44 1.44-2.01 0.74-0.83 1.56-1.6 2.36-2.38 0.68-0.67 1.31-0.73 1.85-0.21 0.51 0.5 0.45 1.2-0.19 1.85-0.76 0.78-1.58 1.51-2.3 2.33-0.37 0.43-0.8 1.01-0.81 1.53-0.1 2.57-0.31 5.15 0.3 7.69 1.35 5.63 6.6 9.31 12.37 8.68 5.53-0.61 9.85-5.45 9.93-11.14 0.05-3.28-1.33-5.09-4.54-5.84-2.95-0.69-5.78-1.71-8.42-3.2-1.33-0.75-2.6-1.62-3.86-2.49-0.74-0.51-0.88-1.25-0.45-1.8 0.44-0.58 1.09-0.59 1.86-0.05 0.02 0.01 0.04 0.03 0.06 0.05 3.37 2.47 7.08 4.21 11.16 5.16 0.88 0.2 1.79 0.45 2.54 0.91 1.04 0.64 1.94 1.51 2.91 2.28 1.18-1.11 1.31-2.66 1.22-4.32-0.27-5.19-4.43-9.47-9.56-9.63-3.09-0.1-6.19-0.05-9.28-0.02-1.37 0.01-2.34 0.91-2.55 2.27-0.04 0.23-0.02 0.52-0.15 0.67-0.25 0.3-0.57 0.68-0.91 0.73-0.33 0.05-0.74-0.23-1.07-0.44-0.16-0.1-0.22-0.37-0.32-0.55-2.29 0.67-3.68 2.32-3.8 4.63-0.07 1.37-0.04 2.76-0.02 4.13 0.02 0.36 0.15 0.73 0.23 1.17zm-17.61 27.67c0-0.41-0.04-0.72 0.01-1.02 0.13-0.81-0.2-1.32-0.86-1.81-1.29-0.95-2.22-2.23-2.96-3.67-1.06-2.09-1.08-4.33-1.23-6.6-0.18-2.6 1.37-4.08 3.08-5.5 0.26-0.22 0.94-0.2 1.26-0.01 0.29 0.17 0.47 0.72 0.47 1.11 0 0.3-0.3 0.65-0.54 0.9-2.2 2.27-1.86 1.33-1.89 4.75 0 0.16 0 0.31 0.01 0.47 0.11 2.84 1.21 5.22 3.49 6.93 2.79 2.09 5.88 2.47 9.04 1 3.34-1.56 5.02-4.31 5.15-7.99 0.09-2.68 0.06-2.73-2.5-3.4-0.19-0.05-0.39-0.09-0.63-0.14 0.43 0.67 0.68 1.92 0.36 2.61-0.17 0.35-0.66 0.77-1 0.77-0.39 0-0.95-0.36-1.12-0.71-0.5-1.08-0.09-2.24 0.84-2.87-1.41-0.61-2.9-1.09-4.22-1.87-1.74-1.02-3.35-2.25-4.99-3.42-0.46-0.33-0.67-0.88-0.37-1.38 0.2-0.33 0.65-0.68 1.01-0.7 0.37-0.02 0.83 0.28 1.14 0.56 1.87 1.7 4.03 2.95 6.38 3.83 1.53 0.57 3.11 0.99 4.67 1.48 1.44 0.44 2.48 1.35 2.66 2.85 0.16 1.35 0.14 2.77-0.05 4.12-0.43 3.02-1.96 5.43-4.39 7.28-0.25 0.19-0.38 0.55-0.56 0.84 0.07 0.06 0.14 0.12 0.2 0.19 1.89-0.63 3.77-1.27 5.67-1.87 0.52-0.16 0.67-0.4 0.67-0.94-0.02-3.56 0.01-7.13-0.03-10.69-0.01-0.66-0.21-1.32-0.36-1.97-0.21-0.91-0.46-1.81-0.68-2.71-0.09-0.38-0.1-0.78-0.26-1.13-1.98-4.31-6.97-7.29-11.76-7.05-6.9 0.35-12.06 5.79-12.11 12.79-0.03 4.39-0.01 8.79 0 13.18 0 0.2 0.03 0.41 0.04 0.64 2.09 0.37 4.16 0.75 6.36 1.15zm-18.97-2.73c0.06 1.21 0.01 2.39 0.19 3.52 0.37 2.31 2.3 3.9 4.75 4.08 2.15 0.16 4.41-1.31 4.96-3.49 0.33-1.3 0.29-2.7 0.42-4.12-3.52 0.01-6.86 0.01-10.32 0.01zm56.53-6.57c-4.26 2-8.42 2.03-12.66-0.03 0 1.06-0.03 1.99 0.02 2.91 0.01 0.2 0.23 0.45 0.42 0.59 1.81 1.31 3.62 2.62 5.46 3.89 0.19 0.13 0.61 0.15 0.79 0.02 1.88-1.3 3.74-2.63 5.59-3.98 0.19-0.14 0.36-0.45 0.37-0.68 0.03-0.86 0.01-1.72 0.01-2.72zm-35.19 8.4c-0.15 1.99 0.44 4.06-1.37 5.52 0.72 0.68 1.36 1.28 2 1.88 0.76 0.71 1.51 1.43 2.29 2.11 0.44 0.39 0.97 0.47 1.52 0.19 0.52-0.26 0.73-0.65 0.71-1.25-0.05-1.14-0.01-2.28-0.01-3.42 0-1.83 0.64-3.34 2.17-4.42 0.14-0.1 0.25-0.27 0.37-0.4-0.03-0.07-0.05-0.14-0.08-0.21-2.52 0.84-5.04 0.8-7.6 0zm20.39-3.88c-0.47 0.7-0.9 1.34-1.35 2.02 1.63 1.96 3.23 3.88 4.75 5.7 1.06-1.06 2.05-2.07 3.07-3.09-2.07-1.49-4.22-3.03-6.47-4.63zm-36.45 17.44c0.64-0.68 1.32-1.37 1.95-2.08 0.27-0.3 0.5-0.64 0.7-0.99 0.56-0.98-0.3-1.81-0.22-2.83-1.76 0.61-3.42 0.58-4.99 0.06-0.29 0.87-0.56 1.69-0.8 2.39 1.09 1.12 2.17 2.23 3.36 3.45zm13.62-10.29c-2.26-0.41-4.34-0.79-6.46-1.17-0.33 1.43-0.88 2.69-1.9 3.66-0.59 0.56-0.51 1.14-0.4 1.86 2.71-1.25 5.35-2.46 7.97-3.69 0.25-0.13 0.45-0.37 0.79-0.66zm-8.72-8.9h-1.63c-2.07 0.02-4.15 0.02-6.22 0.08-0.81 0.02-1.44 0.45-1.87 1.28h9.73c-0.01-0.45-0.01-0.85-0.01-1.36zm29.95-0.05c0.51-0.21 0.93-0.39 1.39-0.58 0-0.92-0.09-1.83 0.02-2.73 0.14-1.17-0.59-1.69-1.41-2.33v5.64z"/>
  <path  d="m61.26 28.15c-1.55 0.02-2.96-0.45-4.22-1.33-0.67-0.46-0.84-1.09-0.48-1.67 0.36-0.57 1.03-0.73 1.7-0.3 2 1.28 3.97 1.3 5.97 0.01 0.68-0.44 1.34-0.3 1.7 0.28 0.37 0.59 0.18 1.25-0.52 1.72-1.24 0.85-2.62 1.31-4.15 1.29z"/>
  <path  d="m66.36 18.87c-0.01-1.2 0.36-1.77 1.14-1.78 0.8-0.01 1.2 0.59 1.19 1.83 0 0.23 0.01 0.47-0.04 0.7-0.13 0.69-0.61 1.09-1.25 1.02-0.66-0.08-1.01-0.49-1.05-1.14 0-0.21 0.01-0.42 0.01-0.63z"/>
  <path  d="m53.85 18.84c0-1.18 0.39-1.76 1.17-1.75s1.16 0.6 1.16 1.78c0 0.18 0.01 0.36-0.01 0.54-0.08 0.81-0.54 1.26-1.23 1.22-0.66-0.03-1.05-0.48-1.1-1.26 0-0.16 0.01-0.35 0.01-0.53z"/>
  <path  d="m36.11 37.86c-0.94-0.33-1.9-0.61-2.81-1.02-0.68-0.31-0.87-0.99-0.6-1.56 0.28-0.58 0.92-0.85 1.59-0.5 1.34 0.69 2.61 0.7 3.94-0.02 0.62-0.33 1.25-0.06 1.53 0.49 0.28 0.56 0.11 1.18-0.48 1.55-0.94 0.59-1.98 0.9-3.1 0.87-0.03 0.06-0.05 0.12-0.07 0.19z"/>
  <path  d="m32.4 30.17c-0.01 0.26 0 0.52-0.05 0.78-0.1 0.58-0.46 0.92-1.05 0.95s-1.04-0.24-1.15-0.83c-0.1-0.53-0.11-1.08-0.07-1.62 0.06-0.69 0.58-1.11 1.19-1.09 0.63 0.03 1.04 0.47 1.1 1.18 0.02 0.21 0 0.41 0 0.62 0.02 0.01 0.03 0.01 0.03 0.01z"/>
  <path  d="m14.88 43.33c-0.03 0.63-0.55 1.1-1.19 1.08-0.62-0.02-1.14-0.55-1.13-1.16 0.01-0.65 0.58-1.16 1.24-1.11 0.63 0.04 1.11 0.57 1.08 1.19z"/>
  <path  d="m18.74 44.41c-0.62 0.01-1.16-0.49-1.18-1.1-0.03-0.61 0.48-1.15 1.1-1.18 0.67-0.03 1.21 0.48 1.21 1.13 0 0.64-0.5 1.14-1.13 1.15z"/>
 </g>
</svg>
